<?xml version="1.0" standalone="no"?>
<!DOCTYPE svg PUBLIC "-//W3C//DTD SVG 1.1//EN"
"http://www.w3.org/Graphics/SVG/1.1/DTD/svg11.dtd">

<svg width="514" height="304" view_box="0 0 514 304"
xmlns="http://www.w3.org/2000/svg"
xmlns:link="http://www.w3.org/1999/xlink">\n\n<desc>Généré par Mocodo 2.3.7 le Mon, 26 Apr 2021 06:01:42</desc>

<rect id="frame" x="0" y="0" width="514" height="304" fill="#f7f7f7" stroke="none" stroke-width="0"/>

<!-- Association VALIDER -->
<line x1="323" y1="178" x2="323" y2="60" stroke="#e08214" stroke-width="2"/>
<text x="328.0" y="128" fill="#542788" font-family="Verdana" font-size="12">0,1</text>
<line x1="452" y1="60" x2="323" y2="60" stroke="#e08214" stroke-width="2"/>
<text x="373" y="77.0" fill="#542788" font-family="Verdana" font-size="12">0,1</text>
<g id="association-VALIDER">
	<path d="M 343 35 a 14 14 90 0 1 14 14 V 60 h -68 V 49 a 14 14 90 0 1 14 -14" fill="#fdb863" stroke="#fdb863" stroke-width="0"/>
	<path d="M 357 60.0 v 11 a 14 14 90 0 1 -14 14 H 303 a 14 14 90 0 1 -14 -14 V 60.0 H 68" fill="#fee0b6" stroke="#fee0b6" stroke-width="0"/>
	<rect x="289" y="35" width="68" height="50" fill="none" rx="14" stroke="#e08214" stroke-width="2"/>
	<line x1="289" y1="60" x2="357" y2="60" stroke="#e08214" stroke-width="1"/>
	<text x="296" y="52.7" fill="#000000" font-family="Verdana" font-size="12">VALIDER</text>
</g>

<!-- Association APPARTENIR -->
<line x1="193" y1="270" x2="64" y2="270" stroke="#e08214" stroke-width="2"/>
<text x="136" y="287.0" fill="#542788" font-family="Verdana" font-size="12">0,N</text>
<line x1="64" y1="178" x2="64" y2="270" stroke="#e08214" stroke-width="2"/>
<text x="69.0" y="237" fill="#542788" font-family="Verdana" font-size="12">0,N</text>
<g id="association-APPARTENIR">
	<path d="M 96 245 a 14 14 90 0 1 14 14 V 270 h -92 V 259 a 14 14 90 0 1 14 -14" fill="#fdb863" stroke="#fdb863" stroke-width="0"/>
	<path d="M 110 270.0 v 11 a 14 14 90 0 1 -14 14 H 32 a 14 14 90 0 1 -14 -14 V 270.0 H 92" fill="#fee0b6" stroke="#fee0b6" stroke-width="0"/>
	<rect x="18" y="245" width="92" height="50" fill="none" rx="14" stroke="#e08214" stroke-width="2"/>
	<line x1="18" y1="270" x2="110" y2="270" stroke="#e08214" stroke-width="1"/>
	<text x="25" y="262.7" fill="#000000" font-family="Verdana" font-size="12">APPARTENIR</text>
</g>

<!-- Association DEFINIR -->
<line x1="323" y1="178" x2="323" y2="270" stroke="#e08214" stroke-width="2"/>
<text x="328.0" y="237" fill="#542788" font-family="Verdana" font-size="12">1,1</text>
<line x1="452" y1="270" x2="323" y2="270" stroke="#e08214" stroke-width="2"/>
<text x="385" y="287.0" fill="#542788" font-family="Verdana" font-size="12">0,N</text>
<g id="association-DEFINIR">
	<path d="M 342 245 a 14 14 90 0 1 14 14 V 270 h -66 V 259 a 14 14 90 0 1 14 -14" fill="#fdb863" stroke="#fdb863" stroke-width="0"/>
	<path d="M 356 270.0 v 11 a 14 14 90 0 1 -14 14 H 304 a 14 14 90 0 1 -14 -14 V 270.0 H 66" fill="#fee0b6" stroke="#fee0b6" stroke-width="0"/>
	<rect x="290" y="245" width="66" height="50" fill="none" rx="14" stroke="#e08214" stroke-width="2"/>
	<line x1="290" y1="270" x2="356" y2="270" stroke="#e08214" stroke-width="1"/>
	<text x="297" y="262.7" fill="#000000" font-family="Verdana" font-size="12">DEFINIR</text>
</g>

<!-- Association COMPOSER -->
<line x1="64" y1="178" x2="193" y2="178" stroke="#e08214" stroke-width="2"/>
<text x="124" y="195.0" fill="#542788" font-family="Verdana" font-size="12">0,N</text>
<line x1="323" y1="178" x2="193" y2="178" stroke="#e08214" stroke-width="2"/>
<text x="241" y="195.0" fill="#542788" font-family="Verdana" font-size="12">1,1</text>
<g id="association-COMPOSER">
	<path d="M 221 153 a 14 14 90 0 1 14 14 V 178 h -84 V 167 a 14 14 90 0 1 14 -14" fill="#fdb863" stroke="#fdb863" stroke-width="0"/>
	<path d="M 235 178.0 v 11 a 14 14 90 0 1 -14 14 H 165 a 14 14 90 0 1 -14 -14 V 178.0 H 84" fill="#fee0b6" stroke="#fee0b6" stroke-width="0"/>
	<rect x="151" y="153" width="84" height="50" fill="none" rx="14" stroke="#e08214" stroke-width="2"/>
	<line x1="151" y1="178" x2="235" y2="178" stroke="#e08214" stroke-width="1"/>
	<text x="158" y="170.7" fill="#000000" font-family="Verdana" font-size="12">COMPOSER</text>
</g>

<!-- Association POSSEDER -->
<line x1="323" y1="178" x2="452" y2="178" stroke="#e08214" stroke-width="2"/>
<text x="384" y="195.0" fill="#542788" font-family="Verdana" font-size="12">0,N</text>
<line x1="452" y1="60" x2="452" y2="178" stroke="#e08214" stroke-width="2"/>
<text x="457.0" y="102" fill="#542788" font-family="Verdana" font-size="12">1,1</text>
<g id="association-POSSEDER">
	<path d="M 479 153 a 14 14 90 0 1 14 14 V 178 h -82 V 167 a 14 14 90 0 1 14 -14" fill="#fdb863" stroke="#fdb863" stroke-width="0"/>
	<path d="M 493 178.0 v 11 a 14 14 90 0 1 -14 14 H 425 a 14 14 90 0 1 -14 -14 V 178.0 H 82" fill="#fee0b6" stroke="#fee0b6" stroke-width="0"/>
	<rect x="411" y="153" width="82" height="50" fill="none" rx="14" stroke="#e08214" stroke-width="2"/>
	<line x1="411" y1="178" x2="493" y2="178" stroke="#e08214" stroke-width="1"/>
	<text x="418" y="170.7" fill="#000000" font-family="Verdana" font-size="12">POSSEDER</text>
</g>

<!-- Association CREER -->
<line x1="193" y1="60" x2="64" y2="60" stroke="#e08214" stroke-width="2"/>
<text x="119" y="77.0" fill="#542788" font-family="Verdana" font-size="12">0,N</text>
<line x1="64" y1="178" x2="64" y2="60" stroke="#e08214" stroke-width="2"/>
<text x="69.0" y="128" fill="#542788" font-family="Verdana" font-size="12">1,1</text>
<g id="association-CREER">
	<path d="M 78 35 a 14 14 90 0 1 14 14 V 60 h -56 V 49 a 14 14 90 0 1 14 -14" fill="#fdb863" stroke="#fdb863" stroke-width="0"/>
	<path d="M 92 60.0 v 11 a 14 14 90 0 1 -14 14 H 50 a 14 14 90 0 1 -14 -14 V 60.0 H 56" fill="#fee0b6" stroke="#fee0b6" stroke-width="0"/>
	<rect x="36" y="35" width="56" height="50" fill="none" rx="14" stroke="#e08214" stroke-width="2"/>
	<line x1="36" y1="60" x2="92" y2="60" stroke="#e08214" stroke-width="1"/>
	<text x="43" y="52.7" fill="#000000" font-family="Verdana" font-size="12">CREER</text>
</g>

<!-- Entity UTILISATEUR -->
<g id="entity-UTILISATEUR">
	<g id="frame-UTILISATEUR">
		<rect x="146" y="9" width="94" height="25" fill="#b2abd2" stroke="#b2abd2" stroke-width="0"/>
		<rect x="146" y="34.0" width="94" height="77" fill="#d8daeb" stroke="#d8daeb" stroke-width="0"/>
		<rect x="146" y="9" width="94" height="102" fill="none" stroke="#8073ac" stroke-width="2"/>
		<line x1="146" y1="34" x2="240" y2="34" stroke="#8073ac" stroke-width="1"/>
	</g>
	<text x="151" y="26.7" fill="#000000" font-family="Verdana" font-size="12">UTILISATEUR</text>
	<text x="151" y="51.7" fill="#000000" font-family="Verdana" font-size="12">nom</text>
	<text x="151" y="68.8" fill="#000000" font-family="Verdana" font-size="12">prénom</text>
	<text x="151" y="85.8" fill="#000000" font-family="Verdana" font-size="12">email</text>
	<line x1="151" y1="88" x2="185" y2="88" stroke="#000000" stroke-width="1"/>
	<text x="151" y="102.8" fill="#000000" font-family="Verdana" font-size="12">mot de passe</text>
</g>

<!-- Entity NIVEAU -->
<g id="entity-NIVEAU">
	<g id="frame-NIVEAU">
		<rect x="412" y="245" width="80" height="25" fill="#b2abd2" stroke="#b2abd2" stroke-width="0"/>
		<rect x="412" y="270.0" width="80" height="25" fill="#d8daeb" stroke="#d8daeb" stroke-width="0"/>
		<rect x="412" y="245" width="80" height="50" fill="none" stroke="#8073ac" stroke-width="2"/>
		<line x1="412" y1="270" x2="492" y2="270" stroke="#8073ac" stroke-width="1"/>
	</g>
	<text x="428" y="262.7" fill="#000000" font-family="Verdana" font-size="12">NIVEAU</text>
	<text x="417" y="287.8" fill="#000000" font-family="Verdana" font-size="12">nomNiveau</text>
	<line x1="417" y1="290" x2="486" y2="290" stroke="#000000" stroke-width="1"/>
</g>

<!-- Entity QUESTION -->
<g id="entity-QUESTION">
	<g id="frame-QUESTION">
		<rect x="267" y="136" width="112" height="25" fill="#b2abd2" stroke="#b2abd2" stroke-width="0"/>
		<rect x="267" y="161.0" width="112" height="59" fill="#d8daeb" stroke="#d8daeb" stroke-width="0"/>
		<rect x="267" y="136" width="112" height="84" fill="none" stroke="#8073ac" stroke-width="2"/>
		<line x1="267" y1="161" x2="379" y2="161" stroke="#8073ac" stroke-width="1"/>
	</g>
	<text x="290" y="153.7" fill="#000000" font-family="Verdana" font-size="12">QUESTION</text>
	<text x="272" y="178.8" fill="#000000" font-family="Verdana" font-size="12">descriptionQuest</text>
	<line x1="272" y1="181" x2="374" y2="181" stroke="#000000" stroke-width="1"/>
	<text x="272" y="195.8" fill="#000000" font-family="Verdana" font-size="12">anecdote</text>
	<text x="272" y="212.8" fill="#000000" font-family="Verdana" font-size="12">wiki</text>
</g>

<!-- Entity REPONSE -->
<g id="entity-REPONSE">
	<g id="frame-REPONSE">
		<rect x="399" y="35" width="106" height="25" fill="#b2abd2" stroke="#b2abd2" stroke-width="0"/>
		<rect x="399" y="60.0" width="106" height="25" fill="#d8daeb" stroke="#d8daeb" stroke-width="0"/>
		<rect x="399" y="35" width="106" height="50" fill="none" stroke="#8073ac" stroke-width="2"/>
		<line x1="399" y1="60" x2="505" y2="60" stroke="#8073ac" stroke-width="1"/>
	</g>
	<text x="423" y="52.7" fill="#000000" font-family="Verdana" font-size="12">REPONSE</text>
	<text x="404" y="77.8" fill="#000000" font-family="Verdana" font-size="12">descriptionResp</text>
	<line x1="404" y1="80" x2="500" y2="80" stroke="#000000" stroke-width="1"/>
</g>

<!-- Entity TAG -->
<g id="entity-TAG">
	<g id="frame-TAG">
		<rect x="163" y="245" width="60" height="25" fill="#b2abd2" stroke="#b2abd2" stroke-width="0"/>
		<rect x="163" y="270.0" width="60" height="25" fill="#d8daeb" stroke="#d8daeb" stroke-width="0"/>
		<rect x="163" y="245" width="60" height="50" fill="none" stroke="#8073ac" stroke-width="2"/>
		<line x1="163" y1="270" x2="223" y2="270" stroke="#8073ac" stroke-width="1"/>
	</g>
	<text x="180" y="262.7" fill="#000000" font-family="Verdana" font-size="12">TAG</text>
	<text x="168" y="287.8" fill="#000000" font-family="Verdana" font-size="12">nomTag</text>
	<line x1="168" y1="290" x2="218" y2="290" stroke="#000000" stroke-width="1"/>
</g>

<!-- Entity QUIZZ -->
<g id="entity-QUIZZ">
	<g id="frame-QUIZZ">
		<rect x="9" y="136" width="110" height="25" fill="#b2abd2" stroke="#b2abd2" stroke-width="0"/>
		<rect x="9" y="161.0" width="110" height="59" fill="#d8daeb" stroke="#d8daeb" stroke-width="0"/>
		<rect x="9" y="136" width="110" height="84" fill="none" stroke="#8073ac" stroke-width="2"/>
		<line x1="9" y1="161" x2="119" y2="161" stroke="#8073ac" stroke-width="1"/>
	</g>
	<text x="43" y="153.7" fill="#000000" font-family="Verdana" font-size="12">QUIZZ</text>
	<text x="14" y="178.8" fill="#000000" font-family="Verdana" font-size="12">titreQuizz</text>
	<line x1="14" y1="181" x2="73" y2="181" stroke="#000000" stroke-width="1"/>
	<text x="14" y="195.8" fill="#000000" font-family="Verdana" font-size="12">thème</text>
	<text x="14" y="212.8" fill="#000000" font-family="Verdana" font-size="12">descriptionQuizz</text>
</g>
</svg>